<?xml version="1.0" encoding="utf-8"?>
<!-- Generator: Adobe Illustrator 27.3.1, SVG Export Plug-In . SVG Version: 6.00 Build 0)  -->
<svg version="1.1" id="Layer_1" xmlns="http://www.w3.org/2000/svg" xmlns:xlink="http://www.w3.org/1999/xlink" x="0px" y="0px"
	 viewBox="0 0 140 140" style="enable-background:new 0 0 140 140;" xml:space="preserve">
<style type="text/css">
	.st0{fill:#494745;}
	.st1{fill:#292624;}
	.st2{fill:#372E2F;}
	.st3{fill:#595859;}
	.st4{fill:#817D75;}
	.st5{fill:#666360;}
	.st6{fill:#433D3D;}
	.st7{fill:#A3A292;}
</style>
<g>
	<path class="st0" d="M60,20c3.3,0,6.6,0,10,0c0,16.7,0,33.3,0,50c0,0,0,0,0,0c-3.3,0-6.7,0-10,0c0-3.3,0-6.7,0-10c0-3.3,0-6.7,0-10
		c0-3.3,0-6.7,0-10c0-3.3,0-6.7,0-10C60,26.7,60,23.4,60,20C60,20,60,20,60,20z"/>
	<path class="st0" d="M59.8,10c0.1,3.3,0.2,6.7,0.3,10l0,0c-3.3,0-6.7,0-10,0c-6.7,0-13.3,0-20,0c-3.3,0-6.7,0-10,0
		c-3.3,0-6.7,0-10,0l0,0c0-3.3,0-6.6,0-9.9c0.4,0,0.7-0.1,1-0.1C27.3,10,43.5,10,59.8,10z"/>
	<path class="st0" d="M0,20.3c0.3-0.1,0.7-0.2,1-0.3c2.8,0,5.7,0,8.5,0c0.2,0,0.3,0,0.5,0c0,0,0,0,0,0c0,3.3,0,6.6,0,10
		c0,3.3,0,6.7,0,10c0,6.7,0,13.3,0,20c0,3.3,0,6.7,0,10l0,0c-0.3,0-0.7,0-1,0c-0.2,0-0.5,0-0.7,0c-2.7,0-5.5,0-8.2-0.1
		c0-0.3,0-0.6-0.1-1C0,52.8,0,36.5,0,20.3z"/>
	<path class="st1" d="M60.5,130c-0.2-0.8-0.4-1.7-0.5-2.5c0-2.5,0-5,0-7.5l0,0c3.3,0,6.7,0,10,0c3.3,0,6.7,0,10,0c3.3,0,6.6,0,10,0
		c3.3,0,6.7,0,10,0l0,0c0,3.3,0,6.6,0,9.9c-0.2,0-0.3,0-0.5,0.1c-0.4,0-0.8,0-1.2,0c-0.4,0-0.8,0-1.2,0c-0.6,0-1.2,0-1.7,0
		c-0.4,0-0.8,0-1.3,0c-0.5,0-1,0-1.5,0c-0.8,0-1.7,0-2.5,0c-0.2,0-0.3,0-0.5,0c-0.3,0-0.7,0-1,0c-0.7,0-1.3,0-2,0c-0.3,0-0.7,0-1,0
		c-0.4,0-0.8,0-1.2,0c-0.4,0-0.8,0-1.2,0c-0.4,0-0.8,0-1.2,0c-0.2,0-0.5,0-0.7,0c-0.7,0-1.5,0-2.2,0c-0.2,0-0.5,0-0.7,0
		c-0.6,0-1.2,0-1.7,0c-0.2,0-0.3,0-0.5,0c-0.5,0-1,0-1.5,0c-0.7,0-1.3,0-2,0c-1.2,0-2.3,0-3.5,0c-0.5,0-1,0-1.5,0c-0.3,0-0.7,0-1,0
		c-0.4,0-0.8,0-1.2,0c-0.4,0-0.8,0-1.2,0C62.7,130,61.6,130,60.5,130z"/>
	<path class="st0" d="M80,80c10,0,20,0,29.9,0c0,0,0.1,0.1,0.1,0.1c0,3.3,0,6.6-0.1,9.9c-3.3,0-6.7,0-10,0c-6.7,0-13.3,0-20,0
		C80,86.7,80,83.4,80,80L80,80z"/>
	<path class="st1" d="M131.8,100c-0.6,0-1.2,0-1.7,0l0,0c0-10,0-20,0-30c3.3,0,6.6,0,10,0c0,10,0,20,0,29.9c-1,0-2,0-3,0.1
		c-0.3,0-0.7,0-1,0C134.6,100,133.2,100,131.8,100z"/>
	<path class="st1" d="M40.5,120c-0.2-0.3-0.5-0.7-0.5-1c0-3,0-6,0-9c3.3,0,6.7,0,10,0c3.3,0,6.7,0,10,0c0,3.3,0,6.6,0,9.9l0,0
		C53.5,120,47,120,40.5,120z"/>
	<path class="st1" d="M117.5,120c-0.4,0-0.8,0-1.2,0c-4.9,0-9.8,0-14.7,0c-0.5,0-1,0-1.5,0c0,0,0,0,0,0c0-3.3,0-6.6,0-10
		c6.7,0,13.3,0,20,0l0,0c0,3.3,0,6.6,0,9.9c-0.3,0-0.7,0-1,0.1c-0.3,0-0.7,0-1,0C117.8,120,117.7,120,117.5,120z"/>
	<path class="st2" d="M50,110c-3.3,0-6.7,0-10,0c-0.6,0-1.1,0-1.7,0c-2.7,0-5.5,0-8.2-0.1c0-1.2,0-2.3-0.1-3.5c0-2.2,0-4.3,0-6.5
		l0,0c6.7,0,13.3,0,20,0C50,103.3,50,106.6,50,110z"/>
	<path class="st0" d="M19,90c-0.2,0-0.5,0-0.7,0c-2.7,0-5.5,0-8.2-0.1c0-0.8,0-1.6-0.1-2.5c0-5.8,0-11.6,0-17.5c0,0,0,0,0,0
		c3.3,0,6.6,0,10,0c0,3.3,0,6.6,0,10c0,3.3,0,6.7,0,10l0,0C19.7,90,19.4,90,19,90z"/>
	<path class="st0" d="M140,70c-3.3,0-6.6,0-10,0c-3.3,0-6.6,0-9.9,0L120,70c0-0.2,0-0.5,0-0.7c0-3,0-6.1,0-9.2c6.7,0,13.3,0,20,0
		C140,63.4,140,66.7,140,70z"/>
	<path class="st0" d="M70,70c3.3,0,6.6,0,10,0c0,3.4,0,6.7,0,10C80,80,80,80,80,80c-3.3,0-6.6,0-9.9,0C70,76.7,70,73.3,70,70L70,70z
		"/>
	<path class="st0" d="M110,80c0-3.3,0-6.5,0-10c2.5,0,4.9,0,7.3,0c0.9,0,1.8,0,2.7,0c0,0,0.1,0.1,0.1,0.1c0,3.3,0,6.5,0,10
		C116.6,80.1,113.3,80.1,110,80L110,80z"/>
	<path class="st1" d="M121.8,110c-0.6,0-1.2,0-1.7,0c0,0,0,0,0,0c0-3.3,0-6.7,0-10c3.3,0,6.7,0,10,0l0,0c0,3.3,0,6.6,0,9.9
		c-0.3,0-0.7,0-1,0.1c-0.2,0-0.5,0-0.7,0c-0.3,0-0.5,0-0.8,0c-0.4,0-0.8,0-1.2,0C124.8,110,123.3,110,121.8,110z"/>
	<path class="st0" d="M29,100c-0.2,0-0.5,0-0.7,0c-2.7,0-5.5,0-8.2-0.1c0-0.4,0-0.8-0.1-1.2c0-2.3,0-4.7,0-7c0-0.3,0-0.7,0-1
		c0-0.2,0-0.5,0-0.7l0,0c3.3,0,6.6,0,10,0c0,3.3,0,6.6,0,10c0,0,0,0,0,0C29.7,100,29.4,100,29,100z"/>
	<path class="st3" d="M60,40c0,3.3,0,6.7,0,10c-3.3,0-6.5,0-10,0c0,3.5,0,6.7,0,10c0,0,0,0,0,0c-3.3,0-6.7,0-10,0c-3.3,0-6.7,0-10,0
		c0-3.3,0-6.6,0-10c0-3.3,0-6.6,0-10c6.7,0,13.3,0,20,0C53.4,40,56.7,40,60,40z"/>
	<path class="st3" d="M70,70c0,3.3,0,6.7,0,10c0,3.3,0,6.7,0,10c-6.7,0-13.3,0-20,0c0,0,0,0,0,0c0-3.3,0-6.6,0-10l0,0
		c3.3,0,6.5,0,10,0c0-3.4,0-6.7,0-10l0,0C63.4,70,66.7,70,70,70z"/>
	<path class="st4" d="M50,20c3.3,0,6.7,0,10,0c0,3.3,0,6.6,0,10c-3.3,0-6.7,0-10,0C50,26.7,50,23.4,50,20z"/>
	<path class="st3" d="M60,60c0,3.3,0,6.7,0,10c0,0,0,0,0,0c-3.3,0-6.7,0-10,0l0,0c0-3.3,0-6.7,0-10c0,0,0,0,0,0
		C53.4,60,56.7,60,60,60z"/>
	<path class="st5" d="M50,30c3.3,0,6.7,0,10,0c0,3.3,0,6.7,0,10c-3.3,0-6.7,0-10,0C50,36.7,50,33.3,50,30L50,30z"/>
	<path class="st5" d="M60,60c-3.3,0-6.7,0-10,0c0-3.3,0-6.5,0-10c3.5,0,6.7,0,10,0C60,53.3,60,56.7,60,60z"/>
	<path class="st1" d="M50,20c0,3.3,0,6.7,0,10c0,0,0,0,0,0c-6.7,0-13.3,0-20,0c0-3.3,0-6.6,0-9.9C36.7,20,43.4,20,50,20z"/>
	<path class="st2" d="M30,20c0,3.3,0,6.6,0,9.9c0,0,0,0.1,0,0.1c-3.3,0-6.7,0-10-0.1l0,0c0-3.3,0-6.7,0-10C23.4,20,26.7,20,30,20z"
		/>
	<path class="st4" d="M20,20c0,3.3,0,6.7,0,10c-3.3,0-6.7,0-10,0c0-3.3,0-6.6,0-10C13.4,20,16.7,20,20,20z"/>
	<path class="st3" d="M10,60c0-6.7,0-13.3,0-20c3.3,0,6.6,0,9.9,0c0,3.3,0,6.7,0,10c0,3.3,0,6.7,0,10C16.7,60,13.4,60,10,60z"/>
	<path class="st5" d="M10,60c3.3,0,6.6,0,10,0c0,0,0,0,0,0c0,3.3,0,6.6,0,9.9l0,0.1c-3.3,0-6.6,0-10,0C10,66.7,10,63.3,10,60z"/>
	<path class="st5" d="M20,40c-3.3,0-6.6,0-9.9,0c0-3.3,0-6.7,0-10c3.3,0,6.7,0,10,0c0,0,0,0,0,0C20,33.3,20.1,36.7,20,40
		C20.1,40,20,40,20,40z"/>
	<path class="st6" d="M80,90c6.7,0,13.3,0,20,0c0,3.3,0,6.7,0,10c-3.3,0-6.5,0-10,0c0,3.4,0,6.7,0,10l0,0c-3.3,0-6.6,0-10,0
		c0,3.5,0,6.7,0,10c-3.3,0-6.7,0-10,0c0-3.3,0-6.7,0-10c0-3.3,0-6.7,0-10l0,0c3.3,0,6.6,0,10,0C80,96.5,80,93.3,80,90L80,90z"/>
	<path class="st5" d="M80,119.9c0-3.2,0-6.5,0-10c3.4,0,6.7,0,10,0c0,3.3,0,6.7,0,10C86.7,120,83.4,119.9,80,119.9z"/>
	<path class="st2" d="M90,120c0-3.3,0-6.7,0-10c0,0,0,0,0,0c3.3,0,6.7,0,10,0l0,0c0,3.3,0,6.6,0,10C96.7,120,93.3,120,90,120z"/>
	<path class="st2" d="M70,110c0,3.3,0,6.7,0,10c-3.3,0-6.7,0-10,0c0-3.3,0-6.6,0-9.9c0,0,0-0.1,0-0.1C63.4,109.9,66.7,110,70,110z"
		/>
	<path class="st2" d="M130,100c-3.3,0-6.7,0-10,0c0,0,0,0,0,0c0-3.3,0-6.5,0-10c-3.4,0-6.7,0-10,0l0,0c0-3.3,0-6.6,0.1-9.9
		c3.3,0,6.5,0,10,0c0-3.5,0-6.7,0-10c3.3,0,6.6,0,9.9,0C130,80,130,90,130,100z"/>
	<path class="st2" d="M100,100c0-3.3,0-6.7,0-10c3.3,0,6.7,0,10,0c0,0,0,0,0,0c0,3.3,0,6.5,0,10c3.4,0,6.7,0,10,0c0,0,0,0,0,0
		c0,3.3,0,6.7,0,10c-6.7,0-13.3,0-20,0c0,0,0,0,0,0C100,106.6,100,103.3,100,100z"/>
	<path class="st6" d="M70,90c0-3.3,0-6.7,0-10c3.3,0,6.6,0,9.9,0c0,3.3,0,6.6,0,10c0,0,0,0,0,0C76.7,90,73.4,90,70,90L70,90z"/>
	<path class="st3" d="M50,110c0-3.3,0-6.7,0-10c0,0,0,0,0,0c3.3,0,6.7,0,10,0c0,3.3,0,6.6,0,9.9c0,0,0,0.1,0,0.1
		C56.7,110,53.4,110,50,110z"/>
	<path class="st3" d="M30,100c0-3.3,0-6.6,0-10c0,0,0-0.1,0-0.1c3.3,0,6.6,0,10,0c3.3,0,6.7,0,10,0c0,0,0,0,0,0c0,3.3,0,6.7,0,10
		c0,0,0,0,0,0C43.4,100,36.7,100,30,100z"/>
	<path class="st3" d="M20,80c0-3.3,0-6.6,0-10c0,0,0-0.1,0-0.1c3.3,0,6.6,0,10,0c3.3,0,6.7,0,10,0c3.3,0,6.7,0,10,0c0,0,0,0,0,0
		c0,3.3,0,6.7,0,10c0,0,0,0,0,0c-3.3,0-6.7,0-10,0c-3.3,0-6.6,0-10,0C26.7,80,23.4,80,20,80z"/>
	<path class="st5" d="M20,80c3.3,0,6.7,0,10,0c0,3.3,0,6.6,0,9.9c0,0,0,0.1,0,0.1c-3.3,0-6.6,0-10,0C20,86.7,20,83.3,20,80z"/>
	<path class="st4" d="M30,30c6.7,0,13.3,0,20,0c0,3.3,0,6.7,0,10c-6.7,0-13.3,0-20,0c0,0-0.1-0.1-0.1-0.1c0-3.3,0-6.6,0-9.9L30,30z"
		/>
	<path class="st5" d="M50,70c-3.3,0-6.7,0-10,0c0-3.3,0-6.7,0-10c3.3,0,6.7,0,10,0C50,63.3,50,66.7,50,70z"/>
	<path class="st5" d="M20,60c0-3.3,0-6.7,0-10c3.3,0,6.7,0,10,0c0,3.3,0,6.6,0,10c0,0,0,0.1,0,0.1C26.7,60,23.4,60,20,60L20,60z"/>
	<path class="st4" d="M30,50c-3.3,0-6.7,0-10,0c0-3.3,0-6.7,0-10c0,0,0.1,0,0.1,0c3.3,0,6.6,0,9.9,0c0,0,0.1,0.1,0.1,0.1
		C30.1,43.4,30,46.7,30,50z"/>
	<path class="st4" d="M40,60c0,3.3,0,6.7,0,10c-3.3,0-6.7,0-10,0c0-3.3,0-6.6,0-9.9c0,0,0-0.1,0-0.1C33.4,60,36.7,60,40,60z"/>
	<path class="st6" d="M50,100c0-3.3,0-6.7,0-10c6.7,0,13.3,0,20,0c0,0,0,0,0,0c0,3.3,0,6.7,0,10c0,0,0,0,0,0c-3.3,0-6.7,0-10,0
		C56.7,100,53.4,100,50,100z"/>
	<path class="st4" d="M40,80c3.3,0,6.7,0,10,0c0,3.3,0,6.6,0,10c-3.3,0-6.7,0-10,0C40,86.6,40,83.3,40,80z"/>
	<path class="st5" d="M50,80c0-3.3,0-6.7,0-10c3.3,0,6.7,0,10,0c0,3.3,0,6.5,0,10C56.6,80,53.3,80,50,80z"/>
	<path class="st7" d="M30,40c-3.3,0-6.6,0-9.9,0c0-3.3,0-6.7,0-10c3.3,0,6.7,0,10,0.1C30,33.4,30,36.7,30,40z"/>
	<path class="st7" d="M30,60c0,3.3,0,6.6,0,9.9c-3.3,0-6.6,0-10,0c0-3.3,0-6.6,0-9.9C23.4,60,26.7,60,30,60z"/>
	<path class="st3" d="M70,100c0-3.3,0-6.7,0-10c3.3,0,6.7,0,10,0c0,3.3,0,6.5,0,10C76.6,100,73.3,100,70,100z"/>
	<path class="st5" d="M60,100c3.3,0,6.7,0,10,0c0,3.3,0,6.7,0,10c-3.3,0-6.7,0-10,0C60,106.6,60,103.3,60,100z"/>
	<path class="st3" d="M100,100c0,3.3,0,6.6,0,10c-3.3,0-6.7,0-10,0c0-3.3,0-6.5,0-10C93.5,100,96.7,100,100,100z"/>
	<path class="st6" d="M120,100c-3.3,0-6.5,0-10,0c0-3.4,0-6.7,0-10c3.3,0,6.5,0,10,0C120,93.4,120,96.7,120,100z"/>
	<path class="st7" d="M40,80c0,3.3,0,6.6,0,9.9c-3.3,0-6.6,0-10,0c0-3.3,0-6.6,0-9.9C33.4,80,36.7,80,40,80z"/>
</g>
</svg>
