<?xml version="1.0" encoding="utf-8"?>
<!-- Generator: Adobe Illustrator 27.3.1, SVG Export Plug-In . SVG Version: 6.00 Build 0)  -->
<svg version="1.1" id="Layer_1" xmlns="http://www.w3.org/2000/svg" xmlns:xlink="http://www.w3.org/1999/xlink" x="0px" y="0px"
	 viewBox="0 0 200 275" style="enable-background:new 0 0 200 275;" xml:space="preserve">
<style type="text/css">
	.st0{fill:none;stroke:#000000;stroke-width:16.6667;stroke-linecap:round;stroke-linejoin:round;stroke-miterlimit:33.3333;}
</style>
<g>
	<g>
		<path class="st0" d="M25,79.6c0,32.2,26.1,58.3,58.3,58.3s58.3-26.1,58.3-58.3s-26.1-58.3-58.3-58.3S25,47.4,25,79.6"/>
		<path class="st0" d="M58.3,79.6h50"/>
		<path class="st0" d="M175,171.3l-50-50"/>
	</g>
	<path d="M96.5,200.3l-40.3,40.3c-1.9,1.9-1.9,5.1,0,7l4.7,4.7c1.9,1.9,5.1,1.9,7,0l32.1-31.9l32.1,31.9c1.9,1.9,5.1,1.9,7,0
		l4.7-4.7c1.9-1.9,1.9-5.1,0-7l-40.3-40.3C101.6,198.3,98.4,198.3,96.5,200.3z"/>
</g>
</svg>
