<?xml version="1.0" encoding="utf-8"?>
<!-- Generator: Adobe Illustrator 27.3.1, SVG Export Plug-In . SVG Version: 6.00 Build 0)  -->
<svg version="1.1" id="Layer_1" xmlns="http://www.w3.org/2000/svg" xmlns:xlink="http://www.w3.org/1999/xlink" x="0px" y="0px"
	 viewBox="0 0 500 390" style="enable-background:new 0 0 500 390;" xml:space="preserve">
<path d="M134.5,2.2 M171.8,272.1c-19.3-22.8-35.1-47.4-48.4-73.6c4.1-0.3,7.9-0.3,11.5-0.9c6.5-1.1,11.3-7.6,10.7-13.7
	c-0.7-6.7-5.6-10.9-12.7-11c-6.8-0.1-13.7-0.1-20.5,0c-2.3,0.1-3.5-0.7-4.6-2.7c-13.1-24.5-26.3-48.9-39.5-73.4
	c-1.6-3-3.1-6.1-4.8-9.6c52.7,0,105,0,157.5,0c-0.8,9.3-1.6,18.2-2.3,27.1c-17.7,4.8-54.6,10.3-73.1,11.1
	c-8.1,0.3-16.1,0.6-24.2,1.3c-6.4,0.6-11,5.9-11.1,11.9c-0.1,6.1,4.2,11.2,10.7,12.4c1.5,0.3,3,0.4,4.4,0.3
	c24.1-0.2,48.1-2.6,71.8-7.1c7.5-1.4,14.9-3.1,21.9-4.6c2.6,12.9,5.2,25.4,7.6,37.9c0.2,1-1.1,3-2.2,3.5c-8.2,4.4-16.3,9-24.9,12.7
	c-10.9,4.6-22.3,8.4-33.4,12.6c-7,2.7-11.1,9.7-9.1,15.4c2.3,6.6,10,10.6,17,8.1c15.7-5.8,31.2-11.9,46.7-18.2
	c5.3-2.2,10.2-5.5,15.4-8.3c7.5,18,16.7,34.9,28.5,50.1c1.6,2.1,0.6,3.3-0.7,4.8c-16.5,18.3-35.1,34-55.8,47.4
	c-0.7,0.4-2.1,0.8-2.5,0.5c-5.5-4.9-11-9.9-16.7-15.2c1.8-1.2,3.1-2.1,4.4-3c4.9-3.4,9.9-6.7,14.5-10.4c6-4.8,6.9-12.6,2.6-18.2
	c-4.3-5.6-10.8-6.4-17.5-1.8C186,262.1,179.1,267.1,171.8,272.1z M31.9,27.2c0.9,0,1.3-0.1,1.8-0.1c43.6-0.1,87.2,0.2,130.7-0.3
	c23.5-0.3,44.6,7,64.6,18.4c2.9,1.7,3.9,3.2,2.1,6.3c-1.4,2.3-2.5,4.9-3.2,7.5c-0.8,3.1-2.5,3.8-5.6,3.8
	c-53.9-0.1-107.8-0.4-161.7,0c-8.1,0.1-12.5-2-15.6-9.6C41.4,44.4,36.5,36.1,31.9,27.2z M438.5,290.2c4.2,2.3,8.4,4.3,12.2,6.8
	c3.8,2.5,7.4,5.4,11.3,8.3c-20.9,30.6-49.9,47.6-85.3,54.2c0.7-15.2,1.4-29.9,2.1-44.8C401.2,313.3,421.6,306.3,438.5,290.2z
	 M284.9,352.6c12.4-16.7,24.8-33.4,36.8-49.6c10.6,3.7,21.1,7.4,32,11.2c1.2,15.9-0.4,32-3.9,48.1
	C327,363.8,305.4,359.8,284.9,352.6z M227.8,323.4c20.5-14.6,38.6-30.5,55-48.2c5.8,5.1,11.3,10.1,17,15.1
	c-11.1,17.8-23.8,34.4-38.1,49.9c-1.6,1.7-3,1.3-4.6,0.4C247.5,335,238,329.4,227.8,323.4z M473.2,241.7c2.7,13.7,1.9,26.9-1.3,40.1
	c-6.5-3.8-13-7.5-18.7-10.8c2.2-8.3,4.4-16.5,6.6-24.7c0.2-0.9,1.1-2.1,1.9-2.3C465.4,243.1,469.2,242.5,473.2,241.7z M460.2,220.1
	c-0.8-2.9-1.5-5.4-2.1-7.9c0.2-0.1,0.3-0.2,0.5-0.3c1.7,2.2,3.5,4.3,5.4,6.7C462.5,219.2,461.5,219.6,460.2,220.1z M264.2,39.4
	l-20-14.2c-23.3-14.4-48.5-22.5-76.9-23.6l-32.7,0.6c-38.5-0.1-77,0-115.6,0c-6.5,0-12.1,1.6-16,7c-4,5.6-3.7,11.4-0.7,17.2
	c7.8,15.1,15.6,30.2,23.6,45.2c27.7,51.7,55.1,103.6,83.3,155c22,40,50.2,75,85.7,104c30.8,25,65.1,43.1,103.9,52.1
	c42.7,9.9,84.4,7,124.4-11.5c29.6-13.7,53.3-34.5,66.4-65c14.5-33.5,14.4-67.2-4.1-99.5c-10.4-18.2-26.6-30.3-45-39.5
	c-6-3-11.9-1.5-16.9,2.9c-4.6,4-6.1,10.3-3.6,16.4c2.1,5,4.7,9.9,7.1,14.7c5.7,11.4,9.5,23.1,8.8,36.1c-1.1,22.6-15,41.2-36.5,48.1
	c-25.5,8.2-49.8,4.8-72.7-8.8c-26.8-15.9-45.4-39.4-59.5-66.6c-14.5-28-23-57.6-22.5-91.1c-0.6-22.7,3.9-46.2,14.4-68.3"/>
</svg>
