<?xml version="1.0" encoding="UTF-8"?>
<svg id="Layer_1" data-name="Layer 1" xmlns="http://www.w3.org/2000/svg" version="1.1" viewBox="0 0 400 400">
  <defs>
    <style>
      .cls-1 {
        fill: #0f7772;
      }

      .cls-1, .cls-2, .cls-3 {
        stroke-width: 0px;
      }

      .cls-2 {
        fill: #8abbe1;
      }

      .cls-3 {
        fill: #fff;
      }
    </style>
  </defs>
  <circle class="cls-2" cx="200" cy="200" r="200"/>
  <path class="cls-1" d="M200.5,168.8c-10.4-.3-16.4,7.6-21.1,13.6-38.4,49.2-105.7,41.6-119.2,41.6s-30.6-12-31.7-30.3C23.1,105.5,103.5,24.9,200.5,26c0,46.7,0,96.2,0,142.9Z"/>
  <path class="cls-3" d="M200.5,168.8c10.4-.3,16.4,7.6,21.1,13.6,38.4,49.2,105.7,41.6,119.2,41.6s30.6-12,31.7-30.3c5.4-88.3-75-168.9-172-167.8,0,46.7,0,96.2,0,142.9Z"/>
</svg>