<?xml version="1.0" encoding="UTF-8"?>
<svg id="Layer_1" data-name="Layer 1" xmlns="http://www.w3.org/2000/svg" version="1.1" viewBox="0 0 200 200">
  <defs>
    <style>
      .cls-1 {
        fill: #000;
        stroke-width: 0px;
      }
    </style>
  </defs>
  <path class="cls-1" d="M118.3,26.8c0,2.8-2.2,5-5,5h-26.6c-2.8,0-5-2.2-5-5s2.2-5,5-5h26.6c2.8,0,5,2.2,5,5ZM113.3,168.2h-26.6c-2.8,0-5,2.2-5,5s2.2,5,5,5h26.6c2.8,0,5-2.2,5-5s-2.2-5-5-5ZM166.6,21.8h-20c-2.8,0-5,2.2-5,5s2.2,5,5,5h20c.9,0,1.7.7,1.7,1.7v20c0,2.8,2.2,5,5,5s5-2.2,5-5v-20c0-6.4-5.2-11.6-11.6-11.6h0ZM173.2,81.7c-2.8,0-5,2.2-5,5v26.6c0,2.8,2.2,5,5,5s5-2.2,5-5v-26.6c0-2.8-2.2-5-5-5ZM173.2,141.6c-2.8,0-5,2.2-5,5v20c0,.9-.7,1.7-1.7,1.7h-20c-2.8,0-5,2.2-5,5s2.2,5,5,5h20c6.4,0,11.6-5.2,11.6-11.6v-20c0-2.8-2.2-5-5-5h0ZM26.8,118.3c2.8,0,5-2.2,5-5v-26.6c0-2.8-2.2-5-5-5s-5,2.2-5,5v26.6c0,2.8,2.2,5,5,5ZM53.4,168.2h-20c-.9,0-1.7-.7-1.7-1.7v-20c0-2.8-2.2-5-5-5s-5,2.2-5,5v20c0,6.4,5.2,11.6,11.6,11.6h20c2.8,0,5-2.2,5-5s-2.2-5-5-5h0ZM53.4,21.8h-20c-6.4,0-11.6,5.2-11.6,11.6v20c0,2.8,2.2,5,5,5s5-2.2,5-5v-20c0-.9.7-1.7,1.7-1.7h20c2.8,0,5-2.2,5-5s-2.2-5-5-5h0Z"/>
  <path class="cls-1" d="M141.6,66.8l-8.4-8.4-33.2,33.2-33.2-33.2-8.4,8.4,33.2,33.2-33.2,33.2,8.4,8.4,33.2-33.2,33.2,33.2,8.4-8.4-33.2-33.2,33.2-33.2Z"/>
</svg>