<?xml version="1.0" encoding="UTF-8"?>
<svg id="Layer_1" data-name="Layer 1" xmlns="http://www.w3.org/2000/svg" version="1.1" viewBox="0 0 200 200">
  <defs>
    <style>
      .cls-1 {
        fill: #000;
        stroke-width: 0px;
      }
    </style>
  </defs>
  <path class="cls-1" d="M121.9,31.2c0,5.2-4.2,9.4-9.4,9.4h-25c-5.2,0-9.4-4.2-9.4-9.4s4.2-9.4,9.4-9.4h25c5.2,0,9.4,4.2,9.4,9.4ZM112.5,159.4h-25c-5.2,0-9.4,4.2-9.4,9.4s4.2,9.4,9.4,9.4h25c5.2,0,9.4-4.2,9.4-9.4s-4.2-9.4-9.4-9.4ZM162.5,21.9h-18.8c-5.2,0-9.4,4.2-9.4,9.4s4.2,9.4,9.4,9.4h15.6v15.6c0,5.2,4.2,9.4,9.4,9.4s9.4-4.2,9.4-9.4v-18.8c0-8.6-7-15.6-15.6-15.6ZM168.8,78.1c-5.2,0-9.4,4.2-9.4,9.4v25c0,5.2,4.2,9.4,9.4,9.4s9.4-4.2,9.4-9.4v-25c0-5.2-4.2-9.4-9.4-9.4ZM168.8,134.4c-5.2,0-9.4,4.2-9.4,9.4v15.6h-15.6c-5.2,0-9.4,4.2-9.4,9.4s4.2,9.4,9.4,9.4h18.8c8.6,0,15.6-7,15.6-15.6v-18.8c0-5.2-4.2-9.4-9.4-9.4ZM31.2,121.9c5.2,0,9.4-4.2,9.4-9.4v-25c0-5.2-4.2-9.4-9.4-9.4s-9.4,4.2-9.4,9.4v25c0,5.2,4.2,9.4,9.4,9.4ZM56.2,159.4h-15.6v-15.6c0-5.2-4.2-9.4-9.4-9.4s-9.4,4.2-9.4,9.4v18.8c0,8.6,7,15.6,15.6,15.6h18.8c5.2,0,9.4-4.2,9.4-9.4s-4.2-9.4-9.4-9.4ZM56.2,21.9h-18.8c-8.6,0-15.6,7-15.6,15.6v18.8c0,5.2,4.2,9.4,9.4,9.4s9.4-4.2,9.4-9.4v-15.6h15.6c5.2,0,9.4-4.2,9.4-9.4s-4.2-9.4-9.4-9.4Z"/>
  <path class="cls-1" d="M100,62.9v-13.9l-18.5,18.5,18.5,18.5v-13.9c15.3,0,27.8,12.5,27.8,27.8s-1.2,9.1-3.2,13l6.8,6.8c3.8-5.9,5.8-12.8,5.7-19.8,0-20.5-16.6-37.1-37.1-37.1ZM100,127.8c-15.3,0-27.8-12.5-27.8-27.8s1.2-9.1,3.2-13l-6.8-6.8c-3.8,5.9-5.8,12.8-5.7,19.8,0,20.5,16.6,37.1,37.1,37.1v13.9l18.5-18.5-18.5-18.5v13.9Z"/>
</svg>