<?xml version="1.0" encoding="UTF-8"?>
<svg id="Layer_1" data-name="Layer 1" xmlns="http://www.w3.org/2000/svg" version="1.1" viewBox="0 0 160 160">
  <defs>
    <style>
      .cls-1 {
        fill: #372f2f;
      }

      .cls-1, .cls-2, .cls-3, .cls-4, .cls-5, .cls-6, .cls-7, .cls-8, .cls-9 {
        stroke-width: 0px;
      }

      .cls-2 {
        fill: #666460;
      }

      .cls-3 {
        fill: #807e76;
      }

      .cls-4 {
        fill: #433e3d;
      }

      .cls-5 {
        fill: #595959;
      }

      .cls-6 {
        fill: #2a2724;
      }

      .cls-7 {
        fill: #759aff;
      }

      .cls-8 {
        fill: #494745;
      }

      .cls-9 {
        fill: #a3a393;
      }
    </style>
  </defs>
  <rect class="cls-7" width="160" height="160" rx="11.4" ry="11.4"/>
  <g>
    <polygon class="cls-8" points="59.9 20 50 20 40 20 30 20 20 20 20 30 30 30 40 30 50 30 59.9 30 70 30 70 20 59.9 20"/>
    <rect class="cls-3" x="20" y="30" width="10" height="10"/>
    <rect class="cls-1" x="30" y="30" width="10" height="10"/>
    <polygon class="cls-6" points="50 30 40 30 40 40 50 40 60 40 60 30 50 30"/>
    <rect class="cls-3" x="60" y="30" width="10" height="10"/>
    <rect class="cls-2" x="20" y="40" width="10" height="10"/>
    <rect class="cls-9" x="30" y="40" width="10" height="10"/>
    <polygon class="cls-3" points="50 40 40 40 40 50 50 50 60 50 60 40 50 40"/>
    <rect class="cls-2" x="60" y="40" width="10" height="10"/>
    <rect class="cls-3" x="30" y="50" width="10" height="10"/>
    <polygon class="cls-5" points="20 50 20 59.9 20 70 30 70 30 59.9 30 50 20 50"/>
    <rect class="cls-2" x="30" y="60" width="10" height="10"/>
    <rect class="cls-2" x="60" y="60" width="10" height="10"/>
    <polygon class="cls-5" points="60 50 59.9 50 50 50 50 50 40 50 40 59.9 40 70 50 70 50 70 59.9 70 60 70 60 60 70 60 70 59.9 70 50 60 50"/>
    <polygon class="cls-8" points="10 30 10 40.1 10 50 10 60 10 70 10 80 20 80 20 70 20 60 20 50 20 40.1 20 30 10 30"/>
    <rect class="cls-2" x="20" y="70" width="10" height="10"/>
    <rect class="cls-9" x="30" y="70" width="10" height="10"/>
    <rect class="cls-3" x="40" y="70" width="10" height="10"/>
    <rect class="cls-2" x="50" y="70" width="10" height="10"/>
    <rect class="cls-5" x="60" y="70" width="10" height="10"/>
    <polygon class="cls-8" points="70 30 70 40.1 70 50 70 60 70 70 70 80 80 80 80 70 80 60 80 50 80 40.1 80 30 70 30"/>
    <polygon class="cls-8" points="140 70 130 70 130 80 140 80 150 80 150 70 140 70"/>
    <polygon class="cls-5" points="50 80 40.1 80 30 80 30 90 40.1 90 50 90 60 90 60 80 50 80"/>
    <rect class="cls-2" x="60" y="80" width="10" height="10"/>
    <polygon class="cls-5" points="70 80 70 90 60 90 60 100 70 100 80 100 80 90 80 80 70 80"/>
    <rect class="cls-8" x="80" y="80" width="10" height="10"/>
    <rect class="cls-8" x="120" y="80" width="10" height="10"/>
    <polygon class="cls-1" points="130 80 130 90 120 90 120 100 130 100 130 110 140 110 140 100 140 90 140 80 130 80"/>
    <polygon class="cls-8" points="20 80 20 89.9 20 100 30 100 30 89.9 30 80 20 80"/>
    <rect class="cls-2" x="30" y="90" width="10" height="10"/>
    <rect class="cls-9" x="40" y="90" width="10" height="10"/>
    <rect class="cls-3" x="50" y="90" width="10" height="10"/>
    <rect class="cls-4" x="80" y="90" width="10" height="10"/>
    <polygon class="cls-8" points="110 90 100.1 90 90 90 90 100 100.1 100 110 100 120 100 120 90 110 90"/>
    <rect class="cls-8" x="30" y="100" width="10" height="10"/>
    <polygon class="cls-5" points="50 100 40 100 40 110 50 110 60 110 60 100 50 100"/>
    <polygon class="cls-4" points="70.1 100 60 100 60 110 70.1 110 80 110 80 100 70.1 100"/>
    <rect class="cls-5" x="80" y="100" width="10" height="10"/>
    <polygon class="cls-4" points="100 100 90 100 90 110 80 110 80 120 80 130 90 130 90 120 100 120 100 110 110 110 110 100 100 100"/>
    <rect class="cls-4" x="120" y="100" width="10" height="10"/>
    <polygon class="cls-1" points="120 110 120 100 110 100 110 110 110 120 120 120 130 120 130 110 120 110"/>
    <polygon class="cls-6" points="140 80 140 90 140 100 140 110 150 110 150 100 150 90 150 80 140 80"/>
    <polygon class="cls-1" points="50 110 40 110 40 120 50 120 60 120 60 110 50 110"/>
    <rect class="cls-5" x="60" y="110" width="10" height="10"/>
    <rect class="cls-2" x="70" y="110" width="10" height="10"/>
    <rect class="cls-5" x="100" y="110" width="10" height="10"/>
    <rect class="cls-6" x="130" y="110" width="10" height="10"/>
    <polygon class="cls-6" points="59.9 120 50 120 50 130 59.9 130 70 130 70 120 59.9 120"/>
    <rect class="cls-1" x="70" y="120" width="10" height="10"/>
    <rect class="cls-2" x="90" y="120" width="10" height="10"/>
    <rect class="cls-1" x="100" y="120" width="10" height="10"/>
    <polygon class="cls-6" points="119.9 120 110 120 110 130 119.9 130 130 130 130 120 119.9 120"/>
    <polygon class="cls-6" points="100 130 89.9 130 80 130 70 130 70 140 80 140 89.9 140 100 140 110 140 110 130 100 130"/>
  </g>
</svg>